<?xml version="1.0" encoding="utf-8"?>
<!-- Generator: Adobe Illustrator 16.0.0, SVG Export Plug-In . SVG Version: 6.00 Build 0)  -->
<!DOCTYPE svg PUBLIC "-//W3C//DTD SVG 1.1//EN" "http://www.w3.org/Graphics/SVG/1.1/DTD/svg11.dtd">
<svg version="1.1" id="Layer_1" xmlns="http://www.w3.org/2000/svg" xmlns:xlink="http://www.w3.org/1999/xlink" x="0px" y="0px"
	 width="144px" height="181.067px" viewBox="0 0 144 181.067" enable-background="new 0 0 144 181.067" xml:space="preserve">
<path fill="#FFFFFF" d="M3.817,150.832v28.357c0.342-0.176,0.653-0.391,0.745-0.645c1.189-0.012,2.472,0.242,1.652-0.338
	c0.188-0.363,1.294-0.246,1.817-0.202c0.39,0.271,1.342,0.721,1.604,0.614c0.361,0.738,1.304-0.963,1.523-1.27
	c-0.015,0.232,1.551,1.051,1.774,0.848c-0.762-0.369,0.001-0.768,1.637-1.083c-0.363-0.708,0.898,0.259,1.686,0.15
	c0.134,0.735,1.49-0.712,1.766-0.173c0.484-0.517,1.855-1.355,1.764-0.642c0.35,0.171,1.394,0.667,1.779,0.237
	c-0.403,0.338,1.774,1.602,1.774,0.994c0-0.58,1.763-1.34,1.763,0.129c0-1.4,1.752,0.257,1.752,0.245
	c0-0.122,1.813-0.968,1.813-0.751c0,0.861,1.691,1.619,1.691,0.949c0-0.631,1.796-0.143,1.796-0.215
	c0-1.012,1.755-0.418,1.755,0.211c0,0.399,1.911,0.725,1.911-0.476c0-0.233,1.597,0.48,1.597,1.019c0,0.249,1.509,1.963,1.509,1.339
	c0,0.008,1.859,0.466,1.859,0.142c0,0.672,1.782,0.929,1.782,0.727c0,0.464,1.846-1.669,1.846-1.508
	c0,0.141,1.726,0.009,1.726,0.088c0-0.192,1.92,0.068,1.92,0.268c0-1.262,0.848-2.461,0.848-1.99c0,1.041,1.601-0.313,1.601-0.606
	c0,0.431,1.742-0.175,1.742,0.156c0,1.026,1.709-0.359,1.709,0.343c0,0.563,1.73,0.015,1.73-0.313c0,0.089,1.682-0.892,1.682-0.596
	c0-0.545,1.804,0.448,1.804,0.27c0-0.056,1.596-1.304,1.596-1.659c0-0.075,1.821,1.464,1.821,0.527c0-0.684,1.77,0.4,1.77-0.031
	c0-0.381,1.836,1.043,1.836-0.582c0,0.173,1.637,1.476,1.637,1.223c0,0.248,1.839,0.686,1.839,1.112
	c0-0.332,2.156,0.603,2.156-0.085c0,1.24,2.017,1.651,2.017,0.508c0,0.419,1.873-0.067,1.873-0.361c0,0.533,1.771,0.172,1.771,0.153
	c0,0.749,1.804,0.573,1.804,0.644c0-0.869,1.738-0.707,1.738-1.057c0,0.222,1.915,1.627,1.915,0.979
	c0,0.201,1.802,0.033,1.802-0.268c0-1.174,1.736-0.52,1.736-0.611c0-0.131,1.586-1.447,1.586-1.344c0-0.227,1.822,0.566,1.822-0.084
	c0-0.009,2.055,2.194,2.055,1.16c0-0.168,1.506-2.379,1.506-1.869c0,0.358,1.774,0.021,1.774-0.494c0-0.504,1.875-0.035,1.875-0.133
	c0-0.709,1.908,0.648,1.908,0.437c0-0.192,1.88,0.151,1.88,0.545c0-0.224,1.825-0.356,1.825-0.658c0-0.142,1.852,0.563,1.852,0.468
	c0-0.188,1.854,0.807,1.854-0.689c0,0.176,1.817,0.315,1.817,1.214c0,0.589,1.895-1.166,1.895-1.271
	c0-1.369,1.806,0.384,1.806,0.981c0-0.935,1.872,0.368,1.872-0.399c0,0.193,1.809,1.531,1.809,0.77c0-0.543,1.761-0.421,1.761-0.303
	c0-0.389,1.789-0.787,1.789-0.814c0-1.876,1.742-0.467,1.742,0.031c0,0.557,1.656,1.829,1.656,1.566
	c0,1.164,1.775,0.271,1.775-0.568c0,0.961,1.771-0.962,1.771-0.492c0,0.404,1.721,0.833,1.721,0.4c0,0.484,1.898,0.094,1.742,0.033
	c-0.114-0.366,2.035,0.02,1.9,0.176c-0.73,0.105,1.557,0.744,1.841,0.53c0.419,0.872,2.226,0.757,1.878,0.167
	c0.294-0.481,2.163,0.674,1.863,0.923c0.436,0.067,1.444,0.229,1.959-0.207c0.07,0.136,0.664-0.14,1.164-0.448v-26.396H3.817z"/>
<rect x="3.817" y="18.203" fill="#FFFFFF" width="136.365" height="147.746"/>
<path fill="#FFFFFF" d="M140.183,37.405V6.171c-0.384,0.119-0.789,0.284-0.979,0.314c-0.789-0.521-1.444-0.123-1.754-0.582
	c0.164-1.12-1.855-0.152-1.748-0.066c-0.342-0.32-1.398-0.655-1.757-0.783c-0.4,1.104-1.688-0.127-1.743,0.224
	c0.076-1.029-2.191,2.268-2.013,1.438c0-1.395-0.89-2.325-0.89-2.313c0-1.644-2.237,0.373-2.237,0.463
	c0-0.154-1.507-1.227-1.507-0.792c0-1.249-1.544-0.403-1.544-0.893c0-1.293-1.602-2.289-1.602-1.364
	c0-1.537-1.858-0.491-1.858-0.165c0-0.387-1.781-0.22-1.781,1c0,0.952-1.676,1.021-1.676,0.634c0-0.226-1.863-0.158-1.863-0.158
	c0-0.374-1.809-0.507-1.809,0.359c0,0.109-1.313,0.93-1.313,1.197c0,0.259-1.803,0.965-1.803,0.234c0,0.178-1.205-0.497-1.205,1.298
	c0-1.019-1.441,0.838-1.441,0.92c0,0.633-1.637-0.202-1.637,0.511c0-1.196-1.745,1.041-1.745,0.768c0,0.782-1.843-1.099-1.843-0.165
	c0,0.26-1.572-0.133-1.572-0.813c0-0.555-1.647-0.804-1.647-0.222c0,0.289-1.534-0.063-1.534-0.738c0,0.019-1.645-1.589-1.645-0.67
	c0-0.356-1.754-0.82-1.754-0.707c0,0.315-1.645,1.322-1.645,1.293c0,1.089-1.887-1.334-1.887-0.993c0-0.381-1.707-0.403-1.707,0.42
	c0,0.438-1.517,1.621-1.517,1.145c0-0.201-1.811-0.481-1.811-0.136c0-0.028-1.519,0.985-1.519,1c0-1.081-1.718,0.277-1.718,0.229
	c0-0.37-1.716,0.344-1.716,0.205c0,0.521-1.613,0.855-1.613,0.649c0,0.221-1.663,1.255-1.663,0.486c0,1.085-1.684,1.747-1.684,0.544
	c0,0.516-1.805-0.726-1.805-0.801c0,0.876-1.734,0.145-1.734,0.202c0-0.545-1.769,0.89-1.769,0.294c0-0.56-1.768-0.233-1.768-0.017
	c0-1.205-1.688-0.396-1.688-0.646c0,0.347-1.753,0.252-1.753-0.129c0,0.048-1.816-0.104-1.816,0.208c0,0.208-1.591-0.92-1.591-1.077
	c0,0.403-1.849,0.406-1.849,0.375c0-0.532-1.785-0.909-1.785,0.076c0-0.684-1.666,0.354-1.666-0.632c0-0.184-1.74,0.248-1.74-0.115
	c0,0.293-1.646-1.606-1.646-1.196c0-0.663-1.763-0.531-1.763-0.503c0,0.362-1.782,0.532-1.782,0.854c0,0.293-1.735-0.21-1.735,0.308
	c0-0.041-1.892-1.479-1.892-0.766c0,0.646-1.616,0.938-1.616,1.166c0,0.513-0.596,1.557-0.596,1.575
	c0-0.744-1.471,0.238-1.471,0.892c0,0.391-1.711,0.397-1.711,0.275c0,0.57-1.77,0.49-1.77,0.879c0,0.121-1.853,0.524-1.853,0.283
	c0,0.28-1.642-1.587-1.642-1.847c0-0.055-1.924,0.602-1.924,0.885c0,0.67-1.602,0.272-1.602-1.28c0,0.753-1.994,1.856-1.994,0.898
	c0-0.034-1.709,0.254-1.709-0.621c0-0.232-1.795-0.11-1.795-0.146c0,0.177-1.817,0.279-1.817,0.111c0,0.392-1.591-1.669-1.591-1.731
	c0-0.465-1.86,0.3-1.86,0.591c0,0.087-1.739-0.11-1.739-0.392c0,0.182-1.734,0.716-1.734,0.423c0,0.296-1.711-0.314-1.711,0.431
	c0,0.054-1.588-0.679-1.813-0.96c-0.116,0.141-1.713-0.204-1.749,0.244c-0.495-0.223-1.672-0.063-1.704,0.444
	c-0.15-0.855-1.678-0.104-1.702,0.573c-0.264-0.115-1.907,1.099-1.705,0.626c-0.654,0.86-2.625-0.427-1.781-1.099
	c-0.112,0.148-1.117,0.369-1.62,0.509v28.299H140.183z"/>
</svg>
